<?xml version="1.0" standalone="no"?>
<!DOCTYPE svg PUBLIC "-//W3C//DTD SVG 20010904//EN"
 "http://www.w3.org/TR/2001/REC-SVG-20010904/DTD/svg10.dtd">
<svg version="1.0" xmlns="http://www.w3.org/2000/svg"
 width="494.000000pt" height="494.000000pt" viewBox="0 0 494.000000 494.000000"
 preserveAspectRatio="xMidYMid meet">
<metadata>
Created by potrace 1.14, written by Peter Selinger 2001-2017
</metadata>
<g transform="translate(0.000000,494.000000) scale(0.100000,-0.100000)"
fill="#000000" stroke="none">
<path d="M254 4050 c0 -17 7 -20 41 -20 92 0 165 -43 208 -124 l22 -41 0
-1115 c0 -613 -3 -1142 -7 -1175 -32 -282 -150 -492 -340 -608 -71 -43 -83
-66 -35 -68 151 -5 274 14 396 61 222 86 397 263 472 476 46 133 46 141 47
1313 l0 1108 21 42 c43 83 95 120 188 130 44 5 59 10 61 24 3 16 -28 17 -535
17 -532 0 -539 0 -539 -20z"/>
<path d="M3600 4061 c-148 -48 -232 -201 -191 -347 55 -199 329 -267 476 -118
131 134 101 345 -62 441 -37 21 -61 27 -122 29 -42 2 -87 0 -101 -5z m119
-101 c98 -28 155 -120 131 -211 -41 -152 -257 -176 -321 -35 -46 101 -5 204
95 243 39 15 53 15 95 3z"/>
<path d="M2598 3851 c134 -75 297 -219 385 -343 80 -113 162 -297 181 -408 6
-34 15 -89 21 -125 11 -58 5 -261 -10 -359 -30 -196 -103 -452 -133 -463 -9
-4 -28 -15 -41 -25 l-24 -19 55 7 c51 6 57 5 68 -16 7 -12 12 -38 12 -56 0
-19 4 -34 8 -34 9 0 20 36 20 69 0 32 48 137 134 291 147 266 305 477 501 675
253 254 507 412 802 500 78 23 103 34 73 31 -256 -27 -554 -161 -805 -361 -78
-62 -211 -190 -294 -281 -64 -71 -220 -277 -257 -339 -14 -25 -27 -45 -29 -45
-1 0 0 30 4 68 8 91 7 283 -2 357 -19 156 -90 346 -184 488 -95 145 -289 310
-455 386 -83 39 -99 40 -30 2z"/>
<path d="M2118 3636 c-1 -2 -32 -6 -68 -10 -85 -8 -131 -19 -217 -54 -111 -45
-273 -162 -273 -196 0 -35 76 -28 160 14 101 50 267 95 369 99 50 2 173 -27
211 -50 30 -19 31 -21 16 -38 -20 -22 -65 -30 -211 -38 -108 -5 -165 -22 -165
-48 0 -28 35 -56 88 -71 43 -13 103 -17 242 -19 208 -2 251 -11 352 -78 105
-71 234 -222 306 -360 33 -63 40 -58 37 28 -8 191 -46 317 -144 465 -108 164
-330 308 -521 339 -72 12 -176 21 -182 17z"/>
<path d="M1289 2770 c-2 -74 -2 -83 5 -145 20 -173 94 -329 223 -466 293 -310
767 -339 1111 -66 47 37 62 55 60 71 -3 18 -9 21 -46 19 -23 -1 -71 -15 -105
-31 -175 -83 -361 -116 -489 -88 -52 12 -118 45 -118 60 0 31 57 45 217 52
113 5 163 22 163 53 0 25 -27 47 -80 67 -35 12 -90 16 -240 18 -220 2 -257 10
-357 75 -106 69 -222 204 -302 351 l-41 75 -1 -45z"/>
<path d="M1240 2140 c-17 -17 -20 -29 -15 -68 7 -62 25 -79 25 -25 0 50 20 75
60 75 3 1 17 -2 33 -6 38 -9 34 8 -7 28 -45 21 -72 20 -96 -4z"/>
<path d="M1306 2055 c-6 -16 110 -161 183 -228 154 -142 353 -239 546 -266 97
-13 285 -6 375 14 102 23 229 78 326 141 120 77 324 284 324 329 0 30 -31 23
-67 -16 -49 -53 -164 -139 -236 -178 -109 -59 -261 -111 -362 -126 -23 -3 -52
-8 -65 -10 -28 -6 -242 -6 -280 -1 -241 35 -406 99 -565 222 -38 29 -88 72
-109 94 -42 43 -60 49 -70 25z"/>
<path d="M2922 1477 c-19 -6 -45 -26 -60 -45 -24 -32 -26 -41 -26 -143 -1
-122 10 -148 75 -182 40 -21 127 -19 173 4 59 29 70 58 70 178 0 124 -10 148
-74 181 -43 22 -104 25 -158 7z m122 -78 c30 -14 33 -24 31 -122 -1 -55 -6
-82 -16 -88 -45 -29 -124 -21 -135 14 -4 12 -7 56 -6 97 1 64 5 78 23 93 24
20 67 22 103 6z"/>
<path d="M3262 1473 c-47 -23 -54 -48 -54 -189 1 -207 -2 -190 31 -190 16 1
33 4 37 9 4 4 8 49 8 99 1 91 2 93 26 98 24 5 27 13 21 58 0 6 -12 12 -26 12
-14 0 -25 3 -25 8 1 17 18 33 37 35 17 1 21 7 19 37 -1 29 -5 35 -23 36 -12 1
-35 -5 -51 -13z"/>
<path d="M3430 1476 c0 -7 6 -20 14 -31 7 -11 36 -63 64 -115 44 -82 50 -103
50 -150 -1 -89 -2 -86 40 -85 l37 1 2 75 c2 72 4 79 67 189 36 63 66 117 66
120 0 3 -20 6 -46 6 l-45 1 -35 -71 c-19 -39 -39 -75 -43 -79 -4 -4 -25 27
-47 70 l-39 78 -42 1 c-26 0 -43 -4 -43 -10z"/>
<path d="M4482 1306 c0 -100 1 -188 4 -197 3 -10 15 -15 37 -15 l32 1 1 103
c1 57 4 106 7 109 8 8 56 7 64 -1 4 -3 7 -52 7 -108 l1 -102 38 -1 37 -1 0
102 c0 57 -4 114 -10 128 -14 37 -64 65 -109 60 l-36 -4 0 52 0 52 -36 1 -36
1 -1 -180z"/>
<path d="M4335 1441 l-31 -6 1 -142 c2 -154 11 -187 59 -199 48 -12 71 -2 74
34 3 29 1 32 -22 32 -30 0 -28 -5 -31 83 -3 65 -2 67 21 67 21 0 24 5 24 35 0
31 -3 35 -25 35 -21 0 -25 5 -25 29 0 35 -5 39 -45 32z"/>
<path d="M1218 1373 c-50 -20 -66 -59 -63 -151 2 -65 5 -77 28 -100 22 -21 37
-27 82 -29 47 -1 58 2 85 27 31 29 33 38 32 138 -1 102 -72 152 -164 115z m85
-82 c9 -34 7 -92 -3 -111 -13 -24 -55 -27 -64 -4 -3 9 -6 40 -6 69 0 40 4 56
16 63 22 13 52 4 57 -17z"/>
<path d="M1778 1373 c-52 -21 -62 -48 -63 -171 l0 -106 38 -1 37 -1 0 102 c0
92 2 104 19 114 11 5 29 10 40 10 17 0 21 6 21 30 0 17 -3 31 -7 31 -35 6 -54
4 -85 -8z"/>
<path d="M1950 1376 l-45 -11 -1 -125 c0 -69 1 -130 4 -137 2 -6 18 -10 35 -9
l32 2 3 106 c2 94 5 106 22 111 10 3 27 -1 37 -8 16 -11 19 -26 18 -102 -1
-48 0 -93 2 -99 2 -7 20 -11 39 -11 33 1 34 3 35 42 4 162 -6 211 -48 234 -31
16 -87 19 -133 7z"/>
<path d="M2253 1378 c-53 -14 -73 -50 -73 -132 0 -95 6 -112 47 -137 44 -27
115 -22 147 11 l21 21 -24 20 c-17 14 -27 17 -37 8 -21 -17 -69 -7 -72 16 -3
19 2 21 70 20 l73 0 0 51 c1 29 -2 61 -6 72 -16 43 -85 67 -146 50z m77 -94
c0 -21 -5 -24 -35 -24 -30 0 -35 3 -35 24 0 15 7 26 18 28 32 7 52 -4 52 -28z"/>
<path d="M3830 1381 c-68 -16 -88 -53 -84 -157 2 -63 7 -80 25 -100 28 -30 80
-40 130 -25 57 17 71 45 70 141 -1 92 -16 124 -66 136 -43 11 -47 11 -75 5z
m55 -77 c11 -12 15 -31 13 -68 -4 -62 -12 -76 -43 -76 -28 0 -35 16 -35 85 0
41 4 56 18 64 23 14 28 14 47 -5z"/>
<path d="M1430 1270 c0 -123 9 -149 61 -170 28 -12 137 -8 158 5 5 2 9 65 9
140 l1 135 -38 0 -39 0 1 -106 c0 -117 -7 -134 -48 -116 -23 11 -25 16 -26 89
-1 43 0 90 1 106 1 25 -1 27 -39 27 l-41 0 0 -110z"/>
<path d="M2450 1264 c0 -115 0 -116 30 -146 26 -26 36 -30 75 -26 46 3 56 -7
33 -30 -14 -14 -57 -16 -77 -3 -10 7 -20 2 -33 -14 -10 -13 -18 -25 -18 -28 0
-5 58 -30 80 -34 28 -6 77 7 98 26 34 29 40 59 40 219 l0 152 -39 0 -39 0 0
-110 c0 -109 0 -110 -26 -116 -41 -10 -48 7 -48 121 l0 105 -38 0 -38 0 0
-116z"/>
<path d="M4020 1276 c0 -57 4 -116 10 -130 18 -49 98 -69 182 -46 l36 10 1
135 2 135 -40 0 -39 0 0 -107 c-1 -58 -6 -111 -11 -116 -17 -17 -61 9 -62 35
0 13 -1 59 -2 103 l-2 80 -37 3 -38 3 0 -105z"/>
</g>
</svg>
